<mxfile host="app.diagrams.net" modified="2024-04-11T10:08:05.736Z" agent="Mozilla/5.0 (Macintosh; Intel Mac OS X 10_15_7) AppleWebKit/537.36 (KHTML, like Gecko) Chrome/123.0.0.0 Safari/537.36" etag="2IG_C1jkDjJOYoku8qJX" version="24.2.3" type="github">
  <diagram name="Page-1" id="7a6c530e-6e37-e111-ec74-82921da8cc10">
    <mxGraphModel dx="1390" dy="726" grid="1" gridSize="10" guides="1" tooltips="1" connect="1" arrows="1" fold="1" page="1" pageScale="1.5" pageWidth="1169" pageHeight="826" background="#184380" math="0" shadow="0">
      <root>
        <mxCell id="0" style=";html=1;" />
        <mxCell id="1" style=";html=1;" parent="0" />
        <mxCell id="23046e2b9bb16c14-116" value="" style="whiteSpace=wrap;html=1;rounded=1;shadow=0;strokeColor=none;strokeWidth=2;fillColor=#009BFF;fontSize=20;fontColor=#FFFFFF;align=center;arcSize=3;verticalAlign=top;spacingTop=4;" parent="1" vertex="1">
          <mxGeometry x="287" y="217" width="1180" height="550" as="geometry" />
        </mxCell>
        <mxCell id="23046e2b9bb16c14-113" value="Title" style="text;strokeColor=none;fillColor=none;html=1;fontSize=24;fontStyle=1;verticalAlign=middle;align=center;rounded=0;shadow=0;fontColor=#FFFFFF;" parent="1" vertex="1">
          <mxGeometry x="120" y="40" width="1510" height="40" as="geometry" />
        </mxCell>
        <mxCell id="23046e2b9bb16c14-114" value="Subtitle" style="text;html=1;strokeColor=none;fillColor=none;align=center;verticalAlign=middle;whiteSpace=wrap;rounded=0;shadow=0;fontSize=10;fontColor=#009BFF;" parent="1" vertex="1">
          <mxGeometry x="114" y="90" width="1526" height="20" as="geometry" />
        </mxCell>
        <mxCell id="oNHXnaBBLPHT7HQtXjru-6" value="SLB/istio" style="image;sketch=0;aspect=fixed;html=1;points=[];align=center;fontSize=12;image=img/lib/mscae/Application_Gateway.svg;" vertex="1" parent="1">
          <mxGeometry x="410" y="340" width="50" height="50" as="geometry" />
        </mxCell>
        <mxCell id="oNHXnaBBLPHT7HQtXjru-11" value="" style="rounded=0;whiteSpace=wrap;html=1;" vertex="1" parent="1">
          <mxGeometry x="510" y="290" width="390" height="460" as="geometry" />
        </mxCell>
        <mxCell id="oNHXnaBBLPHT7HQtXjru-7" value="Redis" style="image;sketch=0;aspect=fixed;html=1;points=[];align=center;fontSize=12;image=img/lib/mscae/Cache_Redis_Product.svg;" vertex="1" parent="1">
          <mxGeometry x="600" y="470" width="95.24" height="80" as="geometry" />
        </mxCell>
        <mxCell id="oNHXnaBBLPHT7HQtXjru-8" value="gRPC-微服务" style="sketch=0;points=[[0,0,0],[0.25,0,0],[0.5,0,0],[0.75,0,0],[1,0,0],[0,1,0],[0.25,1,0],[0.5,1,0],[0.75,1,0],[1,1,0],[0,0.25,0],[0,0.5,0],[0,0.75,0],[1,0.25,0],[1,0.5,0],[1,0.75,0]];outlineConnect=0;fontColor=#232F3E;fillColor=#8C4FFF;strokeColor=#ffffff;dashed=0;verticalLabelPosition=bottom;verticalAlign=top;align=center;html=1;fontSize=12;fontStyle=0;aspect=fixed;shape=mxgraph.aws4.resourceIcon;resIcon=mxgraph.aws4.app_mesh;" vertex="1" parent="1">
          <mxGeometry x="608.62" y="326" width="78" height="78" as="geometry" />
        </mxCell>
        <mxCell id="oNHXnaBBLPHT7HQtXjru-10" value="Polar DB" style="verticalLabelPosition=bottom;html=1;verticalAlign=top;align=center;strokeColor=none;fillColor=#00BEF2;shape=mxgraph.azure.mysql_database;" vertex="1" parent="1">
          <mxGeometry x="609" y="620" width="81" height="80" as="geometry" />
        </mxCell>
        <mxCell id="oNHXnaBBLPHT7HQtXjru-12" value="&lt;div&gt;&lt;br&gt;&lt;/div&gt;&lt;div&gt;&lt;br&gt;&lt;/div&gt;&lt;div&gt;&lt;br&gt;&lt;/div&gt;&lt;div&gt;&lt;br&gt;&lt;/div&gt;&lt;div&gt;K8S / ECS集群&lt;/div&gt;" style="aspect=fixed;sketch=0;html=1;dashed=0;whitespace=wrap;fillColor=#2875E2;strokeColor=#ffffff;points=[[0.005,0.63,0],[0.1,0.2,0],[0.9,0.2,0],[0.5,0,0],[0.995,0.63,0],[0.72,0.99,0],[0.5,1,0],[0.28,0.99,0]];shape=mxgraph.kubernetes.icon2;prIcon=api" vertex="1" parent="1">
          <mxGeometry x="740" y="270" width="50" height="48" as="geometry" />
        </mxCell>
      </root>
    </mxGraphModel>
  </diagram>
</mxfile>
